<svg xmlns="http://www.w3.org/2000/svg" width="24" height="24" viewBox="0 0 24 24" fill="none" stroke="#1D1D1F" stroke-width="1.5" stroke-linecap="round" stroke-linejoin="round"><path d="M21 11V8C21 5.17157 21 3.75736 20.1213 2.87868C19.2426 2 17.8284 2 15 2H8C5.17157 2 3.75736 2 2.87868 2.87868C2 3.75736 2 5.17157 2 8V13C2 15.8284 2 17.2426 2.87868 18.1213C3.75736 19 5.17157 19 8 19H10"></path><path d="M2 6.75H21"></path><path d="M4.35 4.4A0.9 0.9 0 1 0 6.15 4.4A0.9 0.9 0 1 0 4.35 4.4Z" fill="#1D1D1F" stroke="none"></path><path d="M7.35 4.4A0.9 0.9 0 1 0 9.15 4.4A0.9 0.9 0 1 0 7.35 4.4Z" fill="#1D1D1F" stroke="none"></path><path d="M10.35 4.4A0.9 0.9 0 1 0 12.15 4.4A0.9 0.9 0 1 0 10.35 4.4Z" fill="#1D1D1F" stroke="none"></path><path d="M12.702 14.276A1.12 1.169 -36 0 1 14.35 13.079L20.391 16.613A0.849 0.885 -36 0 1 20.167 18.224A5.457 5.693 -36 0 0 16.091 21.765A0.915 0.955 -36 0 1 14.303 21.6Z"></path></svg>
